<svg xmlns="http://www.w3.org/2000/svg" viewBox="0 0 124.9 106.85">
  <defs>
    <style>
      .cls-2{fill:#4b6a96}.cls-3,.cls-4,.cls-5{fill:none;stroke:#4b6a96;stroke-linecap:round;stroke-miterlimit:10}.cls-4,.cls-5{stroke:#daf5f2}.cls-5{stroke-width:.8px}
    </style>
  </defs>
  <g id="レイヤー_2" data-name="レイヤー 2">
    <g id="レイヤー_4" data-name="レイヤー 4">
      <circle cx="63.7" cy="59.52" r="46.84" fill="#a1b3d1"/>
      <circle class="cls-2" cx="89.44" cy="8.91" r="1.04"/>
      <circle class="cls-2" cx="15.15" cy="26.71" r="1.04"/>
      <circle class="cls-2" cx="64.07" cy="12.67" r="1.68"/>
      <circle class="cls-2" cx="16.84" cy="59.51" r="1.68"/>
      <circle class="cls-2" cx="110.52" cy="59.51" r="1.68"/>
      <path class="cls-3" d="M4.71 37.5h5.46M7.44 40.24v-5.47M117.66 76.88h5.46M120.39 79.61v-5.46M45.18.5v1.41M45.18 5.48v1.41M48.43 3.76h-1.4M43.42 3.76h-1.41M47.52 1.41l-.99.99M47.52 5.98l-.99-.99M42.82 1.41l.99.99M42.82 5.98l.99-.99"/>
      <circle class="cls-3" cx="98.63" cy="8.05" r="2.1"/>
      <path class="cls-4" d="M97.97 16.78h5.46M100.7 19.51v-5.46M11.44 92.51h5.46M14.17 95.24v-5.46"/>
      <path class="cls-5" d="M121.87 63.29v1.14M121.87 67.32v1.13M124.5 65.92h-1.13M120.45 65.92h-1.13M123.77 64.03l-.81.8M123.77 67.72l-.81-.81M119.97 64.03l.8.8M119.97 67.72l.8-.81"/>
      <circle class="cls-4" cx="2.6" cy="28.81" r="2.1"/>
      <path class="cls-3" d="M17.41 52.19A46.86 46.86 0 0156 13.3M71.21 13.27A46.89 46.89 0 01110 52.65"/>
      <path d="M78.15 40.82H35.71a1.63 1.63 0 00-1.63 1.63v53.37c8.28 7.35 19.16 10.62 31.1 10.62s22.86-6 31.14-13.33V59" fill="#fff"/>
      <path class="cls-3" d="M109.9 67.14a46.85 46.85 0 01-92.61-1.06"/>
      <path d="M52.47 51.21A7.28 7.28 0 0047 49.08a5.73 5.73 0 00-2.69.68c-.87-.71-2.22-1.06-2.34-.81a6.4 6.4 0 00.58 2.85 5.26 5.26 0 00-.43 2.26c0 2.82 2.16 3.82 4.78 3.82s4.76-1.15 4.81-3.82a6 6 0 00-.33-2c.68-.29 1.22-.72 1.09-.85z" opacity=".7" fill="#a1b3d1"/>
      <path d="M54.16 50.15a8.44 8.44 0 00-6.4-2.48 6.71 6.71 0 00-3.12.8c-1-.83-2.57-1.24-2.72-.94a7.39 7.39 0 00.68 3.3 6.18 6.18 0 00-.5 2.62c.06 3.28 2.51 4.43 5.54 4.43s5.52-1.33 5.58-4.43a6.64 6.64 0 00-.39-2.36c.86-.29 1.48-.79 1.33-.94z" stroke-miterlimit="10" stroke="#4b6a96" fill="none"/>
      <path class="cls-3" d="M42.05 64.03h27.59M62.15 71.31h26.2M42.05 71.31H57.5M42.05 78.59h35.61M42.05 85.88h32.47M42.05 93.16h43.8M78.15 40.74H35.73a1.65 1.65 0 00-1.65 1.65v53.43M96.32 93.11V61.82"/>
      <path d="M89.93 58.9h6.39L78.15 40.74V55.9a3 3 0 003 3h8.78" opacity=".5" fill="#a1b3d1"/>
      <path d="M89.93 58.9h6.39L78.15 40.74V55.9a3 3 0 003 3h8.78" stroke-linejoin="round" stroke-linecap="round" stroke="#4b6a96" fill="none"/>
    </g>
  </g>
</svg>
